<svg xmlns="http://www.w3.org/2000/svg" width="464.1" height="61.80864819301096" viewBox="0 0 369.9130434782609 49.26486784389957" class="looka-1j8o68f" id="minhalogo"><defs id="SvgjsDefs1179"/><g id="SvgjsG1180" featurekey="S6ay6y-0" transform="matrix(0.8466547924503341,0,0,0.8466547924503341,-4.473724259199665,-16.543068601697986)" fill="#6bc5d2"><path xmlns="http://www.w3.org/2000/svg" fill="#6bc5d2" d="M66.843,31.367c-0.534-0.224-1.153,0.022-1.382,0.56c-0.227,0.537,0.025,1.155,0.562,1.382  c7.359,3.113,13.035,9.237,15.572,16.803c0.146,0.442,0.558,0.72,0.999,0.72c0.111,0,0.224-0.017,0.336-0.054  c0.552-0.185,0.848-0.783,0.663-1.335C80.866,41.303,74.759,34.715,66.843,31.367z M95.116,47.858  c-3.514-13.195-13.315-23.76-26.218-28.261c-0.55-0.188-1.151,0.098-1.343,0.649c-0.194,0.55,0.097,1.151,0.647,1.343  c12.244,4.27,21.543,14.293,24.875,26.811c0.126,0.473,0.552,0.784,1.02,0.784c0.089,0,0.181-0.011,0.272-0.035  C94.93,48.998,95.266,48.42,95.116,47.858z M55.18,40.225c-1.913,0-3.851,0.32-5.771,0.955c-2.723-5.286-8.179-8.65-14.161-8.65  c-7.865,0-14.456,5.719-15.673,13.443c-8.083,0.836-14.291,7.616-14.291,15.807c0,7.988,5.961,14.675,13.786,15.739l-0.049,0.208  H55.18c10.339,0,18.75-8.411,18.75-18.75C73.929,48.637,65.518,40.225,55.18,40.225z M55.18,75.617h-33.49l0.004-0.012l-1.258-0.072  c-7.313-0.422-13.043-6.464-13.043-13.753c0-7.36,5.784-13.408,13.169-13.767l0.904-0.044l0.093-0.901  c0.729-7.086,6.613-12.428,13.69-12.428c5.476,0,10.442,3.249,12.654,8.277l0.406,0.92l0.937-0.359  c1.977-0.758,3.975-1.142,5.936-1.142c9.175,0,16.641,7.466,16.641,16.642C71.821,68.152,64.355,75.617,55.18,75.617z"/></g><g id="SvgjsG1181" featurekey="j5pGhi-0" transform="matrix(2.7536529118321162,0,0,2.7536529118321162,92.31585318473051,-7.939617026723958)" fill="#ffffff"><path d="M2.3926 17.3633 q-0.87890625 -1.46484375 -1.0546875 -2.880859375 q0 -10.16601563 0 -10.14648438 l1.3672 0 l0 5.9766 q0.869140625 -1.064453125 1.943359375 -1.586914063 t2.3535 -0.52246 q2.265625 0 3.876953125 1.650390625 t1.6113 4.0039 q0 2.314453125 -1.62109375 3.955078125 t-3.9063 1.6406 q-1.30859375 0 -2.456054688 -0.5029296875 t-2.1143 -1.5869 z M6.8457 18.1348 q1.162109375 0 2.133789063 -0.5712890625 t1.5479 -1.5869 t0.57617 -2.168 q0 -1.1328125 -0.5810546875 -2.172851563 t-1.5625 -1.6113 t-2.0947 -0.57129 q-1.1328125 0 -2.1484375 0.5712890625 t-1.5625 1.5527 t-0.54688 2.1924 q0 1.865234375 1.23046875 3.115234375 t3.0078 1.25 z M14.726603125 14.541 l0 -1.2891 q0.15625 -0.966796875 0.44921875 -1.572265625 q0.68359375 -1.6796875 1.8359375 -2.4609375 t1.9141 -0.78125 q0.56640625 0 1.2109375 0.37109375 l-0.71289 1.1523 q-0.908203125 -0.33203125 -1.801757813 0.537109375 t-1.2354 1.8945 q-0.25390625 0.908203125 -0.25390625 3.408203125 l0 3.623 l-1.4063 0 l0 -4.8828 z M29.9610625 15.6348 l1.1523 0.61523 q-0.556640625 1.123046875 -1.30859375 1.806640625 t-1.6895 1.04 t-2.1191 0.35645 q-2.6171875 0 -4.091796875 -1.713867188 t-1.4746 -3.8721 q0 -2.041015625 1.25 -3.6328125 q1.58203125 -2.03125 4.248046875 -2.03125 q2.724609375 0 4.365234375 2.080078125 q1.162109375 1.46484375 1.171875 3.65234375 l-9.6191 0 q0.0390625 1.875 1.19140625 3.071289063 t2.8418 1.1963 q0.8203125 0 1.591796875 -0.2880859375 t1.3135 -0.75684 t1.1768 -1.5234 z M29.9610625 12.7539 q-0.2734375 -1.103515625 -0.80078125 -1.762695313 t-1.3965 -1.0645 t-1.8262 -0.40527 q-1.572265625 0 -2.705078125 1.015625 q-0.8203125 0.7421875 -1.240234375 2.216796875 l7.9688 0 z M44.424 10.7031 l-1.0938 0.68359 q-1.416015625 -1.89453125 -3.8671875 -1.89453125 q-1.962890625 0 -3.256835938 1.259765625 t-1.2939 3.0664 q0 1.171875 0.595703125 2.211914063 t1.6309 1.6064 t2.3242 0.56641 q2.373046875 0 3.8671875 -1.875 l1.0938 0.71289 q-0.771484375 1.15234375 -2.065429688 1.782226563 t-2.9541 0.62988 q-2.529296875 0 -4.204101563 -1.611328125 t-1.6748 -3.916 q0 -1.5625 0.7861328125 -2.895507813 t2.1484 -2.0801 t3.0615 -0.74707 q1.0546875 0 2.045898438 0.322265625 t1.6846 0.84473 t1.1719 1.333 z M47.05074375 4.609 l1.3867 0 l0 6.0645 q0.830078125 -1.103515625 1.831054688 -1.650390625 t2.1729 -0.54688 q1.2109375 0 2.138671875 0.6103515625 t1.3672 1.6357 t0.43945 3.2324 l0 5.5078 l-1.3672 0 l0 -5.1074 q0 -1.85546875 -0.15625 -2.48046875 q-0.25390625 -1.064453125 -0.927734375 -1.596679688 t-1.7676 -0.53223 q-1.25 0 -2.241210938 0.8251953125 t-1.3037 2.0459 q-0.185546875 0.78125 -0.185546875 2.919921875 l0 3.9258 l-1.3867 0 l0 -14.854 z M60.83006875 17.0215 q0.498046875 0 0.8544921875 0.3564453125 t0.35645 0.86426 q0 0.498046875 -0.3564453125 0.8544921875 t-0.85449 0.35645 q-0.5078125 0 -0.859375 -0.3564453125 t-0.35156 -0.85449 q0 -0.5078125 0.3515625 -0.8642578125 t0.85938 -0.35645 z M74.785609375 17.3633 q0.87890625 -1.46484375 1.0546875 -2.880859375 q0 -10.16601563 0 -10.14648438 l-1.3672 0 l0 5.9766 q-0.869140625 -1.064453125 -1.943359375 -1.586914063 t-2.3535 -0.52246 q-2.265625 0 -3.876953125 1.650390625 t-1.6113 4.0039 q0 2.314453125 1.62109375 3.955078125 t3.9063 1.6406 q1.30859375 0 2.456054688 -0.5029296875 t2.1143 -1.5869 z M70.332009375 18.1348 q-1.162109375 0 -2.133789063 -0.5712890625 t-1.5479 -1.5869 t-0.57617 -2.168 q0 -1.1328125 0.5810546875 -2.172851563 t1.5625 -1.6113 t2.0947 -0.57129 q1.1328125 0 2.1484375 0.5712890625 t1.5625 1.5527 t0.54688 2.1924 q0 1.865234375 -1.23046875 3.115234375 t-3.0078 1.25 z M87.67590625 15.6348 l1.1523 0.61523 q-0.556640625 1.123046875 -1.30859375 1.806640625 t-1.6895 1.04 t-2.1191 0.35645 q-2.6171875 0 -4.091796875 -1.713867188 t-1.4746 -3.8721 q0 -2.041015625 1.25 -3.6328125 q1.58203125 -2.03125 4.248046875 -2.03125 q2.724609375 0 4.365234375 2.080078125 q1.162109375 1.46484375 1.171875 3.65234375 l-9.6191 0 q0.0390625 1.875 1.19140625 3.071289063 t2.8418 1.1963 q0.8203125 0 1.591796875 -0.2880859375 t1.3135 -0.75684 t1.1768 -1.5234 z M87.67590625 12.7539 q-0.2734375 -1.103515625 -0.80078125 -1.762695313 t-1.3965 -1.0645 t-1.8262 -0.40527 q-1.572265625 0 -2.705078125 1.015625 q-0.8203125 0.7421875 -1.240234375 2.216796875 l7.9688 0 z M90.73242375 8.75 l1.4648 0 l3.584 7.793 l3.5547 -7.793 l1.4746 0 l-4.9023 10.713 l-0.24414 0 z"/></g></svg>