<svg xmlns="http://www.w3.org/2000/svg" width="391.2" id="minha_logo" height="101.11015384615386" viewBox="0 0 250.71428571428572 64.80000000000001" class="looka-1j8o68f"><defs id="SvgjsDefs1881"/><g id="SvgjsG1882" featurekey="symbolFeature-0" transform="matrix(0.8732447360149961,0,0,0.8732447360149961,-6.1450912363749985,-11.75998686657628)" fill="#4ade80"><g xmlns="http://www.w3.org/2000/svg"><path fill="#4ade80" d="M84.341,13.467c-26.908,1.188-36.266,19.399-37.689,23.676c0,0,8.551,14.26,7.156,17.894   c0.839-2.188,1.607-4.048,2.348-5.656c-0.181-0.613-0.449-1.584-0.719-2.78c-0.47-2.089-0.941-4.864-0.942-7.636   c0-1.31,0.106-2.62,0.37-3.858c0.141-0.656,0.325-1.292,0.565-1.897c-0.637-0.572-0.729-1.548-0.194-2.233   c0.558-0.716,1.593-0.844,2.309-0.285c0.716,0.559,0.844,1.594,0.284,2.31c-0.394,0.505-1.025,0.717-1.613,0.601   c-0.205,0.533-0.369,1.099-0.495,1.688c-0.249,1.163-0.351,2.413-0.351,3.676c0,2.589,0.432,5.225,0.877,7.25   c0.164,0.75,0.332,1.417,0.479,1.964c2.4-4.888,4.628-7.293,8.276-10.049l-0.016-0.015l0.298-0.319l0.003-0.003l0.011-0.01   c0.009-0.011,0.021-0.023,0.039-0.044c0.034-0.038,0.087-0.095,0.153-0.169c0.134-0.15,0.328-0.373,0.57-0.66   c0.485-0.574,1.158-1.402,1.908-2.421c1.245-1.692,2.704-3.909,3.865-6.339c-0.534-0.434-0.756-1.176-0.501-1.855   c0.321-0.851,1.27-1.279,2.119-0.959c0.852,0.32,1.282,1.269,0.96,2.119c-0.276,0.737-1.026,1.158-1.776,1.049   c-1.197,2.512-2.689,4.777-3.962,6.505c-0.67,0.912-1.279,1.671-1.755,2.24v0.002c-1.321,2.63-2.892,5.002-4.365,7.919   c0.573-0.061,1.28-0.156,2.066-0.3c2.107-0.388,4.807-1.143,7.152-2.579c1.115-0.683,2.151-1.517,3.012-2.536   c-0.389-0.49-0.482-1.183-0.18-1.777c0.415-0.81,1.405-1.131,2.215-0.716c0.809,0.413,1.129,1.405,0.716,2.213   c-0.385,0.751-1.266,1.082-2.039,0.793c-0.941,1.128-2.068,2.037-3.267,2.77c-1.656,1.012-3.45,1.694-5.104,2.153   c-2.064,0.573-3.916,0.807-5.024,0.9v0.001c-2.116,4.434-3.949,10.205-4.429,19.792C57.951,60.347,78.907,51.8,78.907,51.8   C86.226,27.926,84.341,13.467,84.341,13.467z"/><path fill="#4ade80" d="M18.923,19.807c-23.563,30.705-7.797,61.057,10.241,64.968c0,0,13.673,0.722,16.281,2.898   c-6.789-5.664-11.151-11.769-13.95-17.403c-0.491,0.049-0.972,0.072-1.443,0.072c-3.234,0-6.008-1.093-8.205-2.448   c-1.476-0.911-2.695-1.944-3.627-2.854c-0.682,0.366-1.549,0.207-2.053-0.416c-0.572-0.705-0.463-1.743,0.243-2.314   c0.706-0.571,1.743-0.462,2.314,0.245c0.447,0.553,0.477,1.306,0.132,1.881c0.893,0.871,2.055,1.853,3.451,2.713   c2.097,1.296,4.711,2.319,7.745,2.319c0.339,0,0.684-0.013,1.034-0.039c-1.863-3.936-2.971-7.612-3.626-10.717   c-0.585-0.167-1.536-0.471-2.658-0.949c-1.867-0.797-4.214-2.077-6.135-4.039c-0.918-0.938-1.737-2.032-2.348-3.303   c-0.815,0.092-1.59-0.439-1.784-1.257c-0.208-0.884,0.34-1.771,1.224-1.979c0.884-0.208,1.771,0.338,1.979,1.223   c0.155,0.653-0.104,1.308-0.606,1.689c0.551,1.125,1.28,2.104,2.104,2.959c1.177,1.218,2.549,2.173,3.867,2.905   c1.64,0.913,3.194,1.478,4.161,1.78c-0.125-2.99-0.408-5.313-0.726-6.75c-0.046-0.205-0.086-0.42-0.117-0.657   c-0.073-0.546-0.105-1.202-0.105-2.187c0-1.965,0.129-5.25,0.365-11.57c-0.688-0.219-1.176-0.874-1.148-1.63   c0.034-0.907,0.796-1.616,1.705-1.583c0.907,0.034,1.616,0.796,1.583,1.705c-0.028,0.757-0.562,1.375-1.266,1.54   c-0.235,6.32-0.363,9.61-0.363,11.538c0,0.965,0.032,1.585,0.098,2.071c0.048,0.36,0.113,0.653,0.2,0.973   c0.001,0.004,0.003,0.007,0.003,0.01c0.349,1.123,0.828,3.727,4.873,10.771c0.019-0.02,0.038-0.038,0.058-0.058   c0.479-0.485,1.129-1.244,1.797-2.336c1.191-1.943,2.44-4.936,2.861-9.3c-0.661-0.229-1.126-0.868-1.104-1.603   c0.027-0.909,0.787-1.622,1.695-1.595c0.908,0.027,1.622,0.787,1.595,1.694c-0.025,0.776-0.581,1.411-1.309,1.561   c-0.433,4.507-1.73,7.644-2.991,9.702c-0.826,1.346-1.633,2.229-2.17,2.735c1.772,3.259,3.97,6.82,6.577,10.174   c0.472-0.485,1.098-1.228,1.74-2.275c1.191-1.944,2.439-4.935,2.861-9.3c-0.663-0.229-1.126-0.868-1.104-1.604   c0.026-0.907,0.786-1.622,1.694-1.595c0.908,0.028,1.622,0.787,1.594,1.693c-0.023,0.776-0.581,1.412-1.309,1.563   c-0.433,4.506-1.729,7.644-2.989,9.698c-0.716,1.166-1.417,1.984-1.941,2.513c2.752,3.437,5.941,6.611,9.542,8.954   c1.569-5.041,1.904-9.865,1.904-9.865C54.967,32.185,18.923,19.807,18.923,19.807z"/><path fill="#4ade80" d="M57.288,73.593c0,0-1.847,4.824-2.855,10.158c4.126-1.544,8.255-3.825,11.972-6.185l-0.103,0.025   c-0.006-0.028-0.159-0.679-0.159-1.759c0-1.024,0.139-2.437,0.673-4.06c0.407-1.232,1.042-2.584,2.019-3.979   c-0.47-0.621-0.442-1.508,0.102-2.102c0.614-0.669,1.655-0.715,2.325-0.1c0.669,0.613,0.714,1.654,0.101,2.324   c-0.479,0.522-1.217,0.663-1.835,0.411c-0.91,1.311-1.5,2.572-1.879,3.719c-0.502,1.521-0.63,2.839-0.63,3.785   c0,0.583,0.047,1.025,0.087,1.286c3.746-2.419,9.367-6.709,9.367-6.709c0.942-0.777,0.963-1.261,2.688-2.866   c1.439-1.339,3.419-2.929,5.846-4.26c-0.15-0.747,0.236-1.522,0.963-1.834c0.834-0.36,1.803,0.026,2.162,0.858   c0.359,0.836-0.024,1.803-0.859,2.163c-0.663,0.284-1.411,0.1-1.869-0.406c-2.29,1.261-4.179,2.764-5.566,4.047   c-0.359,0.331-0.687,0.646-0.977,0.94c-1.416,1.602-3.851,4.38-7.429,7.842c0.415,0.093,0.992,0.178,1.699,0.178   c0.999,0,2.257-0.166,3.712-0.72c1.095-0.417,2.304-1.052,3.594-2.008c-0.271-0.622-0.139-1.372,0.386-1.861   c0.665-0.619,1.706-0.583,2.326,0.082c0.619,0.664,0.583,1.705-0.082,2.325c-0.583,0.543-1.455,0.581-2.079,0.134   c-1.361,1.013-2.651,1.696-3.835,2.146c-1.556,0.59-2.926,0.776-4.021,0.776c-1.144,0-1.99-0.2-2.44-0.343   c-3.146,2.993-7.111,6.447-11.975,10.068c0.708-0.036,1.428-0.102,2.15-0.207c29.008-0.996,32.228-28.839,32.228-28.839   C72.151,54.671,63.543,61.018,57.288,73.593z"/></g></g><g id="SvgjsG1883" featurekey="nameLeftFeature-0" transform="matrix(2.5714285714285716,0,0,2.5714285714285716,91.9142849785941,-0.4285714285714306)" fill="#4ade80"><path d="M8.92 12.24 c1.48 0.4 2.88 1.72 2.88 3.66 c0 2.54 -1.6 4.1 -5.08 4.1 l-5.52 0 l0 -14 l5.22 0 c2.9 0 4.36 1.64 4.36 3.52 c0 1.48 -0.96 2.32 -1.86 2.72 z M6.14 8.56 l-2.02 0 l0 2.82 l2.02 0 c1.24 0 1.74 -0.58 1.74 -1.42 c0 -0.9 -0.58 -1.4 -1.74 -1.4 z M6.56 17.44 c1.6 0 2.32 -0.66 2.32 -1.9 c0 -1.06 -0.72 -1.8 -2.44 -1.8 l-2.32 0 l0 3.7 l2.44 0 z M24.72 20 l-3.1 0 l-2.98 -4.66 l-0.04 0 l-1.98 0 l0 4.66 l-2.92 0 l0 -14 l4.9 0 c3.14 0 5.18 1.9 5.18 4.76 c0 1.9 -0.92 3.32 -2.48 4.04 z M16.62 8.68 l0 4.14 l1.8 0 c1.44 0 2.44 -0.56 2.44 -2.06 c0 -1.48 -1 -2.08 -2.44 -2.08 l-1.8 0 z"/></g><g id="SvgjsG1884" featurekey="nameRightFeature-0" transform="matrix(2.5714285714285716,0,0,2.5714285714285716,158.9142862047468,-0.4285714285714306)" fill="#4ade80"><path d="M4.64 6 c4.18 0 7.06 3.08 7.06 7.06 c0 3.86 -2.88 6.94 -7.06 6.94 l-3.44 0 l0 -14 l3.44 0 z M4.62 19.44 c3.9 0 6.5 -2.82 6.5 -6.38 c0 -3.68 -2.6 -6.5 -6.5 -6.5 l-2.84 0 l0 12.88 l2.84 0 z M14.28 19.42 l7.28 0 l0 0.58 l-7.68 0 l-0.18 0 l0 -14 l0.58 0 l7.1 0 l0 0.58 l-7.1 0 l0 6.1 l5.66 0 l0 0.58 l-5.66 0 l0 6.16 z M35.08 6 l0.62 0 l-6.28 14 l-0.3 0 l-6.26 -14 l0.62 0 l5.8 13 z"/></g></svg>